<?xml version="1.0" encoding="UTF-8" standalone="no"?>
<svg
   xmlns:dc="http://purl.org/dc/elements/1.1/"
   xmlns:cc="http://creativecommons.org/ns#"
   xmlns:rdf="http://www.w3.org/1999/02/22-rdf-syntax-ns#"
   xmlns:svg="http://www.w3.org/2000/svg"
   xmlns="http://www.w3.org/2000/svg"
   version="1.1"
   id="svg5738"
   viewBox="0 0 415.00011 415.00011"
   height="117.12225mm"
   width="117.12225mm">
  <defs
     id="defs5740" />
  <metadata
     id="metadata5743">
    <rdf:RDF>
      <cc:Work
         rdf:about="">
        <dc:format>image/svg+xml</dc:format>
        <dc:type
           rdf:resource="http://purl.org/dc/dcmitype/StillImage" />
        <dc:title></dc:title>
      </cc:Work>
    </rdf:RDF>
  </metadata>
  <g
     transform="translate(744.6429,320.8521)"
     id="layer1">
    <g
       id="Layer1000"
       transform="translate(-2217.4766,2271.86)">
      <path
         id="path14"
         style="fill:#1b1918;fill-rule:evenodd"
         d="m 1887.8338,-2592.7121 -415.0001,0 0,415.0001 415.0001,0 0,-415.0001 z" />
      <path
         id="path16"
         style="fill:#ffffff;fill-rule:evenodd"
         d="m 1622.3058,-2428.2216 26.1198,0 0,-11.8497 0,-11.6086 0,-1.9354 c 0,-11.1738 0.29,-28.4415 8.4155,-39.1311 8.5625,-11.3196 20.316,-19.0087 40.5343,-19.0087 32.9392,0 46.8232,4.6907 46.8232,4.6907 l -6.5309,38.6965 c 0,0 -10.8816,-3.1447 -21.0408,-3.1447 -10.1568,0 -19.2515,3.6277 -19.2515,13.7854 l 0,4.1119 0,13.544 0,11.8497 41.6465,0 -2.9031,37.7766 -38.7434,0 0,131.2763 -48.9498,0 0,-131.2763 -26.1198,0 0,-37.7766 z" />
    </g>
  </g>
</svg>
