<?xml version="1.0" encoding="UTF-8" standalone="no"?>
<svg
   xmlns:dc="http://purl.org/dc/elements/1.1/"
   xmlns:cc="http://creativecommons.org/ns#"
   xmlns:rdf="http://www.w3.org/1999/02/22-rdf-syntax-ns#"
   xmlns:svg="http://www.w3.org/2000/svg"
   xmlns="http://www.w3.org/2000/svg"
   xmlns:xlink="http://www.w3.org/1999/xlink"
   width="117.12225mm"
   height="117.12225mm"
   viewBox="0 0 415.00011 415.00011"
   id="svg6422"
   version="1.1">
  <defs
     id="defs6424">
    <linearGradient
       xlink:href="#grad4"
       id="grad5"
       x1="2742.2346"
       y1="-2514.5732"
       x2="2742.2346"
       y2="-2393.5752"
       gradientUnits="userSpaceOnUse" />
    <linearGradient
       id="grad4">
      <stop
         offset="0%"
         stop-color="#f9f9f9"
         stop-opacity="1.0000"
         id="stop184" />
      <stop
         offset="100%"
         stop-color="#d1d1d3"
         stop-opacity="1.0000"
         id="stop186" />
    </linearGradient>
    <linearGradient
       gradientTransform="scale(0.80386035,1.2439972)"
       xlink:href="#grad4"
       id="grad7"
       x1="3166.7324"
       y1="-2021.3657"
       x2="3166.7324"
       y2="-1805.6414"
       gradientUnits="userSpaceOnUse" />
  </defs>
  <metadata
     id="metadata6427">
    <rdf:RDF>
      <cc:Work
         rdf:about="">
        <dc:format>image/svg+xml</dc:format>
        <dc:type
           rdf:resource="http://purl.org/dc/dcmitype/StillImage" />
        <dc:title></dc:title>
      </cc:Work>
    </rdf:RDF>
  </metadata>
  <g
     id="layer1"
     transform="translate(-55.3571,280.8521)">
    <g
       transform="translate(-2439.5296,2311.86)"
       id="Layer1022">
      <path
         d="m 2909.8868,-2177.712 -415.0001,0 0,-415.0001 415.0001,0 0,415.0001 z"
         style="fill:#1b1918;fill-rule:evenodd"
         id="path178" />
      <g
         id="Layer1023">
        <defs
           id="defs181">
          <linearGradient
             id="linearGradient6403">
            <stop
               offset="0%"
               stop-color="#f9f9f9"
               stop-opacity="1.0000"
               id="stop6405" />
            <stop
               offset="100%"
               stop-color="#d1d1d3"
               stop-opacity="1.0000"
               id="stop6407" />
          </linearGradient>
          <linearGradient
             xlink:href="#grad4"
             id="linearGradient6409"
             x1="0"
             y1="0"
             x2="0"
             y2="1"
             gradientUnits="objectBoundingBox" />
        </defs>
        <path
           d="m 2863.2326,-2460.7958 -53.7765,0 0,-53.7774 -13.4442,0 0,53.7774 -53.7774,0 0,13.4441 53.7774,0 0,53.7766 13.4442,0 0,-53.7766 53.7765,0 0,-13.4441 z"
           style="fill:#ffffff;fill-opacity:1"
           id="path189" />
        <defs
           id="defs191">
          <linearGradient
             id="linearGradient6413">
            <stop
               offset="0%"
               stop-color="#f9f9f9"
               stop-opacity="1.0000"
               id="stop6415" />
            <stop
               offset="100%"
               stop-color="#d1d1d3"
               stop-opacity="1.0000"
               id="stop6417" />
          </linearGradient>
          <linearGradient
             xlink:href="#grad4"
             id="linearGradient6419"
             x1="0"
             y1="0"
             x2="0"
             y2="1"
             gradientUnits="objectBoundingBox" />
        </defs>
        <path
           d="m 2683.316,-2360.0987 c -7.5114,-5.3172 -21.8768,-18.2497 -21.8768,-25.8507 0,-8.9081 2.5429,-13.2974 15.9517,-23.7738 13.7452,-10.7402 23.4718,-25.8364 23.4718,-43.4002 0,-20.905 -9.3112,-41.2832 -26.7901,-48.0048 l 26.3509,0 18.5994,-13.445 c 0,0 -62.3331,0 -83.1095,0 -37.2589,0 -72.3254,28.2278 -72.3254,60.9258 0,33.4127 25.3981,60.3809 63.3039,60.3809 2.6353,0 5.1972,-0.052 7.7048,-0.2324 -2.46,4.7094 -4.2187,10.0142 -4.2187,15.5211 0,9.2863 4.9952,16.8158 11.3118,22.9601 -4.7722,0 -9.3806,0.1381 -14.4073,0.1381 -46.1508,0 -81.6718,29.3921 -81.6718,59.8722 0,30.0161 38.9414,48.7946 85.0921,48.7946 52.6132,0 81.6728,-29.8532 81.6728,-59.8722 0,-24.07 -7.1027,-38.485 -29.0596,-54.0137 z m -44.3977,-41.6386 0,0 c -21.4138,-0.6402 -41.7624,-23.9547 -45.4581,-52.0692 -3.6957,-28.1192 10.6612,-49.6406 32.0693,-49.0013 21.4061,0.644 41.7624,23.2049 45.46,51.3203 3.6928,28.1192 -10.6679,50.3895 -32.0712,49.7502 z m -8.3851,142.2538 0,0 c -31.8987,0 -54.9369,-20.1924 -54.9369,-44.4492 0,-23.7728 28.5756,-43.5622 60.4743,-43.2173 7.4447,0.078 14.3816,1.2767 20.6802,3.3146 17.316,12.0426 29.7379,18.8471 33.2411,32.5704 0.6602,2.7839 1.0175,5.6459 1.0175,8.5699 0,24.2568 -15.6297,43.2116 -60.4762,43.2116 z"
           style="fill:#ffffff;fill-opacity:1"
           id="path199" />
      </g>
    </g>
  </g>
</svg>
