<?xml version="1.0" encoding="UTF-8" standalone="no"?>
<svg
   xmlns:dc="http://purl.org/dc/elements/1.1/"
   xmlns:cc="http://creativecommons.org/ns#"
   xmlns:rdf="http://www.w3.org/1999/02/22-rdf-syntax-ns#"
   xmlns:svg="http://www.w3.org/2000/svg"
   xmlns="http://www.w3.org/2000/svg"
   version="1.1"
   id="svg4525"
   viewBox="0 0 415.00011 414.99589"
   height="117.12106mm"
   width="117.12225mm">
  <defs
     id="defs4527" />
  <metadata
     id="metadata4530">
    <rdf:RDF>
      <cc:Work
         rdf:about="">
        <dc:format>image/svg+xml</dc:format>
        <dc:type
           rdf:resource="http://purl.org/dc/dcmitype/StillImage" />
        <dc:title></dc:title>
      </cc:Work>
    </rdf:RDF>
  </metadata>
  <g
     transform="translate(290.3572,472.2786)"
     id="layer1">
    <g
       id="Layer1002"
       transform="translate(-2274.2174,2120.4292)">
      <path
         id="path50"
         style="fill:#1b1918;fill-rule:evenodd"
         d="m 1983.8602,-2592.7078 0,414.9959 415.0001,0 0,-414.9959 -415.0001,0 z" />
      <g
         id="Layer1003">
        <path
           id="path53"
           style="fill:#ffffff;fill-rule:evenodd"
           d="m 2329.2186,-2465.6608 c -9.7539,4.3265 -20.2372,7.2499 -31.2395,8.5647 11.2288,-6.7314 19.8544,-17.3905 23.9152,-30.0927 -10.5103,6.2339 -22.1506,10.7603 -34.5405,13.1993 -9.9212,-10.5712 -24.0576,-17.1759 -39.7019,-17.1759 -30.0382,0 -54.3923,24.3525 -54.3923,54.3907 0,4.263 0.481,8.4144 1.4084,12.3959 -45.2046,-2.2688 -85.2838,-23.923 -112.1103,-56.8313 -4.6824,8.0334 -7.3645,17.3766 -7.3645,27.3451 0,18.871 9.6021,35.519 24.1973,45.2734 -8.9163,-0.283 -17.3033,-2.7296 -24.6362,-6.8032 -0.01,0.227 -0.01,0.4543 -0.01,0.6839 0,26.3535 18.7493,48.3354 43.6316,53.3349 -4.5639,1.2426 -9.3691,1.9081 -14.3299,1.9081 -3.5051,0 -6.9121,-0.342 -10.2338,-0.9762 6.9219,21.6083 27.0088,37.3342 50.8105,37.7716 -18.6151,14.5896 -42.0681,23.2862 -67.5521,23.2862 -4.3903,0 -8.7198,-0.2589 -12.9749,-0.7613 24.0711,15.4332 52.6619,24.4382 83.3783,24.4382 100.0465,0 154.757,-82.8808 154.757,-154.7582 0,-2.3582 -0.053,-4.7037 -0.1578,-7.0372 10.628,-7.6689 19.8487,-17.2481 27.1407,-28.156 z" />
      </g>
    </g>
  </g>
</svg>
