<?xml version="1.0" encoding="UTF-8" standalone="no"?>
<svg
   xmlns:dc="http://purl.org/dc/elements/1.1/"
   xmlns:cc="http://creativecommons.org/ns#"
   xmlns:rdf="http://www.w3.org/1999/02/22-rdf-syntax-ns#"
   xmlns:svg="http://www.w3.org/2000/svg"
   xmlns="http://www.w3.org/2000/svg"
   version="1.1"
   id="svg5140"
   viewBox="0 0 415 414.99589"
   height="117.12106mm"
   width="117.12222mm">
  <defs
     id="defs5142" />
  <metadata
     id="metadata5145">
    <rdf:RDF>
      <cc:Work
         rdf:about="">
        <dc:format>image/svg+xml</dc:format>
        <dc:type
           rdf:resource="http://purl.org/dc/dcmitype/StillImage" />
        <dc:title></dc:title>
      </cc:Work>
    </rdf:RDF>
  </metadata>
  <g
     transform="translate(1118.9286,366.5643)"
     id="layer1">
    <g
       id="Layer1024"
       transform="translate(-2080.7358,2226.1435)">
      <path
         id="path202"
         style="fill:#1b1918;fill-rule:evenodd"
         d="m 961.8072,-2592.7078 0,414.9959 415,0 0,-414.9959 -415,0 z" />
      <path
         id="path204"
         style="fill:#ffffff;fill-rule:evenodd"
         d="m 1085.8533,-2497.9133 98.4999,0 c 32.4114,0 60.0021,15.8777 59.9729,47.9852 -0.026,26.8089 -9.7325,37.2373 -29.675,49.0291 1.7047,1.4049 13.1326,4.8141 16.9696,6.7048 6.1452,3.0283 9.7602,6.0897 13.8027,10.1999 11.3145,11.5044 13.424,22.0213 13.424,40.0663 0,41.8686 -40.496,62.9175 -79.4942,62.9175 l -93.9172,0 0.4173,-216.9028 z m 53.5249,56.9852 -0.01,28.1667 c 25.3712,0 49.2109,3.3421 49.2109,-24.1668 0,-25.4678 -26.9697,-21.2714 -49.2288,-21.2714 l 0.025,17.2715 z m -0.015,119.99 c 27.7994,0 62.144,4.5793 62.7483,-26.9825 0.6304,-32.9227 -35.2811,-26.981 -62.7324,-26.981 l -0.016,53.9635 z" />
    </g>
  </g>
</svg>
